<?xml version="1.0" encoding="UTF-8" standalone="no"?>
<svg
   xmlns:dc="http://purl.org/dc/elements/1.1/"
   xmlns:cc="http://creativecommons.org/ns#"
   xmlns:rdf="http://www.w3.org/1999/02/22-rdf-syntax-ns#"
   xmlns:svg="http://www.w3.org/2000/svg"
   xmlns="http://www.w3.org/2000/svg"
   xmlns:sodipodi="http://sodipodi.sourceforge.net/DTD/sodipodi-0.dtd"
   xmlns:inkscape="http://www.inkscape.org/namespaces/inkscape"
   width="361.50003pt"
   height="154.5pt"
   version="1.0"
   viewBox="0 0 361.50003 154.5"
   id="svg4534"
   sodipodi:docname="lol emea logo.svg"
   inkscape:version="0.92.5 (2060ec1f9f, 2020-04-08)">
  <metadata
     id="metadata4540">
    <rdf:RDF>
      <cc:Work
         rdf:about="">
        <dc:format>image/svg+xml</dc:format>
        <dc:type
           rdf:resource="http://purl.org/dc/dcmitype/StillImage" />
        <dc:title></dc:title>
      </cc:Work>
    </rdf:RDF>
  </metadata>
  <defs
     id="defs4538" />
  <sodipodi:namedview
     pagecolor="#ffffff"
     bordercolor="#666666"
     borderopacity="1"
     objecttolerance="10"
     gridtolerance="10"
     guidetolerance="10"
     inkscape:pageopacity="0"
     inkscape:pageshadow="2"
     inkscape:window-width="1920"
     inkscape:window-height="1009"
     id="namedview4536"
     showgrid="false"
     inkscape:pagecheckerboard="true"
     fit-margin-top="0"
     fit-margin-left="0"
     fit-margin-right="0"
     fit-margin-bottom="0"
     inkscape:zoom="0.87577445"
     inkscape:cx="536.02836"
     inkscape:cy="90.507393"
     inkscape:window-x="1912"
     inkscape:window-y="70"
     inkscape:window-maximized="1"
     inkscape:current-layer="svg4534" />
  <path
     d="m 96.648882,2.14458 c -0.248881,1.19601 -2.03253,11.46525 -3.9821,22.80678 -4.936144,28.91058 -6.761273,37.65386 -7.964199,38.06628 -0.912565,0.2887 -2.115491,-3.25811 -4.687264,-13.81604 -2.945094,-12.16636 -4.06506,-15.79565 -4.728743,-15.79565 -1.202926,0 -2.322892,4.8253 -5.765749,24.95136 -3.567298,20.86841 -4.770224,26.18861 -5.97315,26.18861 -0.622203,0 -1.493287,-2.51575 -3.359897,-9.60936 -1.866609,-7.01113 -2.820654,-9.77434 -3.401377,-9.77434 -1.451807,0 -3.774698,10.55793 -7.217556,33.07602 -0.580723,3.79425 -1.037005,7.42354 -1.037005,8.08341 v 1.19602 l 6.139071,0.24745 c 12.236661,0.45366 24.805164,3.67053 32.354561,8.28963 l 2.779174,1.73216 0.124441,12.86747 c 0.08296,10.84663 0.207401,12.86748 0.705163,12.86748 1.037005,0 4.770224,-4.20668 6.139071,-6.96988 l 1.327367,-2.72197 0.12444,-49.90272 C 98.349571,33.1585 98.059209,0 97.478486,0 97.271085,0 96.939244,0.98981 96.648882,2.14458 Z"
     id="path4530"
     inkscape:connector-curvature="0"
     style="stroke-width:1" />
  <path
     d="M 0.29036145,41.94303 C 0.12444062,51.84109 0,76.33878 0,96.38235 c 0,34.72569 0.04148021,36.4991 0.78812393,38.47871 2.40585197,6.35125 9.49896707,11.67146 20.15938107,15.21826 12.775903,4.24792 26.962134,5.44394 41.106885,3.54681 6.09759,-0.82484 10.12117,-1.81465 10.411532,-2.557 0.497762,-1.23726 -6.885715,-25.4875 -9.250087,-30.43653 -0.580722,-1.23726 -1.285886,-2.26831 -1.617728,-2.26831 -0.954044,0 -2.322891,2.88694 -5.267986,11.13532 -1.866609,5.19648 -3.691738,9.07322 -4.313941,9.07322 -0.290362,0 -0.912565,-1.07229 -1.410327,-2.39203 -1.783649,-4.70158 -3.235457,-11.54774 -11.407057,-52.99586 -4.230981,-21.4458 -6.346472,-29.323 -7.549398,-27.83829 -1.078485,1.31974 -2.696214,7.71224 -6.180551,24.45645 -4.728744,22.64181 -6.222031,28.25071 -7.424957,28.25071 -1.700688,0 -4.645783,-13.93976 -11.1996558,-52.78965 C 3.6502582,36.2104 1.8251291,25.94116 1.410327,24.62142 1.2858864,24.25024 1.0370052,23.92031 0.87108435,23.92031 c -0.16592083,0 -0.45628228,8.08341 -0.5807229,18.02272 z M 144.51704,37.40642 c -0.49776,0.0825 -1.24441,0.53614 -1.65921,1.03104 -0.70516,0.74236 -0.78812,1.60844 -0.78812,8.99074 0,7.46479 0.083,8.24838 0.78812,9.03198 0.99553,1.11353 2.77918,1.11353 3.7747,0.0412 0.4148,-0.45366 0.87109,-0.82484 1.03701,-0.82484 0.16592,0 0.4148,0.37118 0.53924,0.82484 0.12444,0.45366 0.49776,0.82484 0.87108,0.82484 0.58073,0 0.66369,-0.7836 0.66369,-5.98008 v -5.98008 h -4.14802 v 1.44347 c 0,1.15478 0.16592,1.44347 0.8296,1.44347 0.74664,0 0.8296,0.28869 0.8296,2.39203 0,1.48471 -0.24888,2.68072 -0.6222,3.21687 -0.6222,0.7836 -0.6222,0.7836 -1.2444,0 -0.49777,-0.65987 -0.62221,-2.10334 -0.62221,-6.55747 0,-3.13438 0.2074,-6.06256 0.4148,-6.47498 0.70517,-1.2785 1.65921,-0.53614 1.65921,1.2785 0,1.5672 0.0415,1.60844 1.45181,1.60844 1.45181,0 1.45181,0 1.45181,-1.85589 0,-2.63948 -0.70517,-3.8355 -2.44733,-4.3304 -0.82961,-0.20621 -1.57625,-0.37118 -1.70069,-0.37118 -0.12444,0.0412 -0.62221,0.16497 -1.07849,0.24746 z m 31.06868,0 c -0.53925,0.0825 -1.32737,0.65987 -1.78365,1.23725 -0.74665,0.98981 -0.82961,1.64968 -0.82961,8.45459 0,9.4444 0.33184,10.18676 4.47987,10.228 2.19845,0 3.27693,-1.40223 3.60877,-4.74282 0.41481,-3.75301 0.0415,-12.57878 -0.53924,-13.69232 -0.4148,-0.74235 -3.02805,-1.93837 -3.81618,-1.73216 -0.12444,0.0412 -0.6222,0.16497 -1.11996,0.24746 z m 2.28141,9.98054 c -0.12444,6.51622 -0.16592,6.84616 -0.95405,6.84616 -0.78812,0 -0.8296,-0.32994 -0.95404,-6.55747 -0.12444,-6.63995 0.12444,-7.8772 1.41033,-7.3823 0.49776,0.16497 0.58072,1.40222 0.49776,7.09361 z m -61.72255,-0.16497 v 9.69185 h 7.09311 l -0.12444,-1.36098 c -0.12444,-1.23726 -0.24888,-1.31974 -1.8666,-1.44347 L 119.463,53.98566 V 37.53014 h -3.31842 z m 8.29604,0 v 9.69185 h 6.63683 v -1.44347 c 0,-1.44346 0,-1.44346 -1.86661,-1.44346 h -1.8666 v -5.36145 h 1.4518 c 1.41033,0 1.45181,-0.0412 1.45181,-1.64968 0,-1.60843 -0.0415,-1.64968 -1.45181,-1.64968 h -1.4518 v -4.94903 h 1.8666 c 1.86661,0 1.86661,0 1.86661,-1.44346 v -1.44347 h -6.63683 z m 10.16265,-8.37211 c -0.2074,1.19602 -2.28141,17.89899 -2.28141,18.35265 0,0.0825 0.6222,0.12373 1.36885,0.0412 1.2444,-0.12373 1.32736,-0.24746 1.4518,-1.89713 0.12445,-1.60844 0.20741,-1.73216 1.36885,-1.73216 1.07849,0 1.20293,0.12372 1.20293,1.31974 0,0.74235 0.16592,1.60843 0.37332,1.89713 0.37332,0.61863 2.77917,0.53614 2.69621,-0.12373 -0.0415,-0.24745 -0.58072,-4.61909 -1.2444,-9.81557 l -1.16145,-9.36192 h -1.78365 c -1.65921,0 -1.74217,0.0825 -1.99105,1.31974 z m 2.40585,8.86701 c 0.24888,2.39203 0.2074,2.59824 -0.53924,2.59824 -0.70516,0 -0.78812,-0.20621 -0.58072,-2.18582 0.4148,-4.0417 0.74664,-4.16543 1.11996,-0.41242 z m 14.39364,-1.73216 c 0,10.64042 0.24888,11.34153 4.14802,11.34153 0.91256,0 1.94957,-0.32994 2.53029,-0.7836 0.99552,-0.78359 0.99552,-0.90732 1.11996,-9.89806 l 0.12445,-9.11446 h -2.9451 v 8.24838 c 0,7.21734 -0.083,8.28963 -0.66368,8.53708 -0.37332,0.12373 -0.82961,0 -1.03701,-0.32994 -0.2074,-0.32993 -0.37332,-4.16543 -0.37332,-8.53707 v -7.91845 h -2.90361 z m 9.54044,1.23726 v 9.69185 h 7.05164 v -2.88693 h -4.14802 v -5.36145 h 1.4518 c 1.41033,0 1.45181,-0.0412 1.45181,-1.64968 0,-1.60843 -0.0415,-1.64968 -1.45181,-1.64968 h -1.4518 v -4.94903 h 1.86661 c 1.86661,0 1.86661,0 1.86661,-1.44346 v -1.44347 h -6.63684 z m 21.56971,0 v 9.69185 h 2.90362 V 48.7067 l 1.57624,-0.12373 c 1.45181,-0.12372 1.53477,-0.20621 1.53477,-1.56719 0,-1.36098 -0.083,-1.44347 -1.53477,-1.56719 l -1.57624,-0.12373 v -4.90779 h 4.14802 v -2.88693 h -7.05164 z m 12.02926,13.60983 V 84.1335 h 16.59208 v -7.01112 h -9.54044 V 63.51255 h 7.05163 v -7.01113 h -7.05163 V 44.12885 h 9.12564 v -6.59871 h -16.17728 z m 19.4957,0 V 84.1335 h 6.22203 l 0.083,-14.55839 0.12444,-14.51716 2.07401,14.43467 2.07401,14.43467 h 2.90362 l 2.07401,-14.43467 2.07401,-14.43467 0.12444,14.51716 0.083,14.55839 h 6.63683 V 37.53014 h -8.5864 l -1.61773,11.54774 c -0.87109,6.35125 -1.70069,11.54773 -1.82513,11.54773 -0.12444,0 -0.74664,-3.8355 -1.36885,-8.57832 -0.66368,-4.70157 -1.36884,-9.89805 -1.61772,-11.54773 l -0.41489,-2.96942 h -9.04268 z m 27.79174,0 V 84.1335 h 16.59208 v -7.01112 h -9.54045 V 63.51255 h 7.05164 v -7.01113 h -7.05164 V 44.12885 h 9.12565 v -6.59871 h -16.17728 z m 21.86007,-0.53614 c -1.53477,12.53754 -2.77918,23.05423 -2.77918,23.30168 0,0.37118 0.91257,0.53614 3.06954,0.53614 h 3.06953 l 0.24888,-2.39203 c 0.16592,-1.2785 0.37333,-3.21687 0.49777,-4.3304 l 0.24888,-1.93837 h 5.2265 l 0.24888,2.76321 c 0.16593,1.56719 0.37333,3.50556 0.49777,4.3304 l 0.24888,1.56719 h 3.27694 c 3.11101,0 3.27693,-0.0412 3.27693,-0.94856 0,-0.4949 -1.32737,-10.84662 -2.90361,-22.97175 -1.61773,-12.12512 -2.90362,-22.18815 -2.90362,-22.35311 0,-0.16497 -1.90809,-0.32994 -4.27246,-0.32994 h -4.27246 z m 8.62788,6.18628 0.24888,1.97962 h -1.90809 c -1.20293,0 -1.86661,-0.16497 -1.86661,-0.53615 0,-0.24745 0.37332,-3.75301 0.82961,-7.71224 0.45628,-3.95922 0.8296,-7.50602 0.87108,-7.83596 0.0415,-0.32994 0.4148,2.26831 0.78812,5.77387 0.41481,3.50556 0.87109,7.25857 1.03701,8.33086 z m -155.96558,-5.3202 c -0.12444,0.28869 -0.16592,5.52641 -0.12444,11.63022 l 0.12444,11.13531 h 7.88124 l 0.12444,-1.7734 0.12444,-1.73216 h -4.6043 V 60.62561 h -1.65921 c -0.99553,0 -1.78365,0.20621 -1.86661,0.53615 z m 9.62341,-0.24745 c -0.16592,0.12372 -0.29036,5.44393 -0.29036,11.75394 V 84.1335 h 8.29604 v -3.71177 h -4.56282 v -6.55746 l 1.78364,-0.12373 c 1.74217,-0.12372 1.74217,-0.12372 1.74217,-1.7734 0,-1.64968 0,-1.64968 -1.74217,-1.7734 l -1.78364,-0.12373 v -5.69138 l 2.19845,-0.12373 2.15697,-0.12372 0.12444,-1.77341 0.12444,-1.73216 h -3.89914 c -2.11549,0 -4.02358,0.12373 -4.14802,0.2887 z m 11.61446,0.16496 c -1.65921,0.94857 -1.94957,2.80445 -1.94957,11.79519 0,7.71224 0.083,8.70205 0.78812,9.85682 1.32737,2.14458 3.7747,2.18582 5.47539,0.0412 0.66368,-0.7836 0.66368,-0.7836 0.95404,0.28869 0.2074,0.7836 0.53925,1.07229 1.28589,1.07229 h 1.037 l -0.083,-7.13485 -0.12444,-7.09361 -2.36437,-0.12372 -2.40585,-0.12373 v 1.89713 c 0,1.56719 0.12444,1.85589 0.8296,1.85589 0.74665,0 0.82961,0.28869 0.82961,3.25811 0,3.38183 -0.53924,4.53661 -1.86661,4.00046 -0.53924,-0.20621 -0.6222,-1.36098 -0.53924,-8.37211 0.12444,-7.83596 0.16592,-8.16589 0.95404,-8.16589 0.70516,0 0.8296,0.32993 0.95405,1.93837 l 0.12444,1.97961 h 3.81618 l -0.29037,-1.89713 c -0.12444,-1.07229 -0.24888,-2.26831 -0.24888,-2.72197 0,-0.41242 -0.45628,-1.23725 -1.037,-1.7734 -0.82961,-0.82484 -1.41033,-1.03105 -3.19398,-1.03105 -1.20292,0 -2.53029,0.20621 -2.94509,0.45366 z m 9.25008,11.30029 V 84.1335 h 8.29604 v -3.71177 h -4.56282 v -6.5987 h 3.31842 v -3.71178 h -3.31842 v -5.73262 l 2.19845,-0.12373 2.15697,-0.12372 v -3.29936 l -4.02358,-0.12372 -4.06506,-0.12373 z m 9.95525,0 V 84.1335 h 3.31842 l 0.0415,-6.1038 0.0415,-6.06256 1.32737,4.94903 c 0.74664,2.72197 1.49328,5.44393 1.6592,6.06256 0.20741,0.98981 0.49777,1.15477 1.70069,1.15477 h 1.45181 V 60.62561 h -3.31842 l -0.0415,5.85635 -0.0415,5.8976 -1.49328,-5.8976 -1.49329,-5.85635 h -3.1525 z m 11.19966,0 v 11.83643 l 3.73322,-0.16497 c 5.76575,-0.20621 5.55834,0.16497 5.72427,-11.42401 l 0.12444,-9.4444 -1.03701,-1.15477 c -0.95404,-1.11353 -1.20293,-1.19602 -4.77022,-1.31974 l -3.7747,-0.16497 z m 5.72427,-0.24745 c 0.083,6.14504 -0.0415,8.08341 -0.41481,8.37211 -1.49328,0.90732 -1.57624,0.53614 -1.57624,-8.1659 v -8.4546 l 0.95404,0.12373 c 0.91257,0.12373 0.91257,0.16497 1.03701,8.12466 z m 6.96867,-10.55793 c -2.40585,2.39203 -1.70069,6.8874 1.74217,11.42401 2.19845,2.88693 2.36437,3.25811 2.36437,5.36145 0,2.02085 -0.12444,2.2683 -0.87108,2.39203 -1.03701,0.16496 -1.41033,-0.7836 -1.41033,-3.75302 v -1.93837 h -3.31842 v 3.13439 c 0,4.70158 0.91257,5.89759 4.47987,5.93883 1.20292,0 2.57177,-0.20621 3.02805,-0.41242 1.49329,-0.82483 2.11549,-2.7632 1.94957,-5.98007 -0.12444,-2.88694 -0.16592,-3.01066 -2.94509,-6.80492 -2.82066,-3.87674 -3.44286,-5.77387 -2.32289,-6.8874 0.99552,-0.9898 1.61772,-0.0825 1.61772,2.18582 v 2.22707 h 3.31842 v -2.88694 c 0,-2.557 -0.12444,-3.0519 -1.03701,-3.91798 -0.8296,-0.86608 -1.41032,-1.03105 -3.31841,-1.03105 -1.86661,0 -2.48881,0.16497 -3.27694,0.94857 z m -58.73597,28.37443 c -2.19845,0.65987 -3.5673,1.85589 -4.64578,4.00047 -0.95405,1.93837 -0.95405,1.93837 -0.95405,19.05376 0,18.64135 0.0415,19.05377 2.36437,21.65201 1.53477,1.7734 3.52582,2.43327 7.42496,2.39203 3.65026,0 5.80723,-0.94856 7.30052,-3.13439 1.36884,-2.02085 1.74216,-4.45412 1.78364,-11.34152 v -6.26877 h -7.05163 v 6.18628 c 0,5.65015 -0.083,6.26877 -0.8296,7.01113 -1.03701,1.03105 -1.86661,1.03105 -2.90362,0 -0.78812,-0.7836 -0.8296,-1.36098 -0.8296,-16.12559 0,-9.73309 0.16592,-15.5482 0.4148,-16.08435 0.29036,-0.53614 0.87108,-0.78359 1.86661,-0.78359 1.99105,0 2.28141,0.78359 2.28141,6.35125 v 4.78406 h 7.1346 l -0.16593,-6.31001 c -0.12444,-5.77387 -0.2074,-6.43374 -1.16144,-8.08341 -1.41033,-2.47452 -3.40138,-3.46432 -7.42496,-3.58805 -1.74217,-0.0825 -3.81618,0.0412 -4.6043,0.28869 z m 126.84647,0.12373 c -2.48881,0.90732 -3.48434,1.73216 -4.52134,3.8355 -0.99553,1.97961 -0.99553,2.10333 -1.11997,18.39389 -0.083,13.89853 0,16.78546 0.53925,18.64135 1.28588,4.41288 3.81618,6.1038 9.12564,6.1038 5.10207,0 7.50792,-1.52595 8.95973,-5.69138 0.45628,-1.31975 0.58072,-5.15524 0.58072,-18.14645 0,-14.92957 -0.083,-16.66173 -0.74664,-18.43513 -0.91257,-2.30955 -2.98658,-4.24792 -5.14355,-4.82531 -2.15697,-0.61863 -5.80723,-0.53614 -7.67384,0.12373 z m 5.89019,7.21733 c 0.24888,0.53615 0.4148,6.35126 0.4148,16.16683 0,13.73356 -0.083,15.42448 -0.70516,16.12559 -0.91257,0.98981 -2.32289,0.94857 -3.27694,-0.12372 -0.74664,-0.82484 -0.78812,-1.69092 -0.78812,-16.24932 0,-12.37257 0.12444,-15.46571 0.58072,-16.00186 0.78813,-0.98981 3.23546,-0.90732 3.7747,0.0825 z m 38.90844,-7.21733 c -4.27247,1.56719 -5.10207,3.17563 -5.10207,9.9393 0,4.70158 0.083,5.07276 1.28589,7.62975 0.70516,1.48471 2.82065,4.6191 4.72874,7.01113 4.35542,5.52642 4.97762,6.76367 4.97762,10.7229 0,3.50556 -0.66368,4.94903 -2.28141,4.94903 -1.82513,0 -2.28141,-1.36099 -2.28141,-6.68119 v -4.86655 h -7.05163 v 5.85635 c 0.0415,7.95969 0.78812,9.85682 4.35542,11.5065 2.48881,1.15477 7.7568,1.07229 10.16265,-0.16497 3.5673,-1.7734 4.68726,-4.70158 4.47986,-11.79519 -0.16592,-5.85635 -0.74664,-7.21733 -5.97315,-13.85728 -4.72874,-6.02132 -5.26798,-7.13485 -5.30946,-10.64041 -0.0415,-2.35079 0.083,-2.92818 0.74664,-3.42308 1.037,-0.74236 1.70069,-0.74236 2.48881,0.0825 0.49776,0.4949 0.66368,1.56719 0.66368,4.74282 v 4.08295 h 7.1346 l -0.16592,-5.48517 c -0.16592,-6.14505 -0.70516,-7.62976 -3.19398,-9.11447 -1.82513,-1.07229 -7.42495,-1.36098 -9.66488,-0.4949 z m -155.05302,23.13671 v 23.30168 h 7.05164 V 116.3022 h 4.56282 v 20.20853 h 7.46644 l -0.083,-23.21919 -0.12444,-23.17796 -3.60878,-0.12372 -3.65026,-0.12373 v 18.6001 h -4.56282 V 89.90737 h -7.05164 z m 27.16954,-21.98194 c -0.12444,0.74236 -1.32737,10.55793 -2.69622,21.77573 -1.36884,11.2178 -2.61325,21.11586 -2.73769,21.98194 l -0.24888,1.5672 3.27693,-0.12373 3.23546,-0.12373 0.37332,-4.24791 0.37332,-4.20668 h 5.18503 l 0.2074,1.31974 c 0.16592,0.74236 0.37332,2.72197 0.53924,4.3304 l 0.29037,3.01066 h 6.96867 l -0.24888,-1.36098 c -0.12444,-0.70111 -1.41033,-10.59917 -2.90362,-21.9407 -1.4518,-11.34152 -2.77917,-21.23958 -2.90361,-21.98194 l -0.24888,-1.31974 h -8.21308 z m 5.18502,21.07462 c 0.45629,4.00047 0.82961,7.58851 0.82961,7.91845 0,0.45366 -0.49777,0.61863 -1.90809,0.61863 -1.57625,0 -1.86661,-0.12373 -1.65921,-0.74236 0.083,-0.37117 0.49776,-4.00046 0.91256,-8.00093 0.41481,-4.04171 0.78813,-7.25858 0.87109,-7.21733 0.0415,0.0825 0.49776,3.42308 0.95404,7.42354 z m 12.02926,0.90732 v 23.30168 h 6.63684 l 0.0415,-13.93976 0.0415,-13.89853 1.78365,12.16637 c 0.99552,6.68119 1.90808,12.94996 2.07401,13.89852 0.24888,1.69092 0.33184,1.7734 1.6592,1.7734 1.32737,0 1.41033,-0.0825 1.65921,-1.7734 0.16592,-0.94856 1.07849,-7.21733 2.07401,-13.89852 l 1.78365,-12.16637 0.0415,13.89853 0.0415,13.93976 h 6.63684 V 89.90737 h -8.21309 l -0.24888,1.11353 c -0.12444,0.65987 -0.91256,5.98008 -1.70069,11.87767 -0.8296,5.8976 -1.57624,10.76414 -1.61772,10.84663 -0.083,0.0412 -0.82961,-4.94903 -1.65921,-11.13532 -0.87109,-6.18629 -1.65921,-11.58898 -1.74217,-12.0014 -0.2074,-0.61862 -0.78812,-0.70111 -4.77022,-0.70111 h -4.52135 z m 28.20654,-0.0412 v 23.34292 h 7.05164 v -19.3837 h 3.27694 c 3.56729,0 5.10206,-0.70111 6.84423,-3.01065 0.8296,-1.11354 0.87108,-1.69092 0.87108,-10.80539 0,-9.11446 -0.0415,-9.69185 -0.87108,-10.80538 -1.57625,-2.10334 -2.65473,-2.39203 -10.20413,-2.51575 l -6.96868,-0.16497 z m 10.78486,-15.87814 c 0.2074,0.45367 0.4148,3.25812 0.4148,6.26878 0,6.18628 -0.29036,6.96988 -2.77917,6.96988 h -1.36885 V 96.50612 h 1.65921 c 1.20292,0 1.74217,0.20621 2.07401,0.78359 z m 10.78485,15.91938 v 23.30168 h 7.05164 V 89.90741 h -7.05164 z m 33.18417,0 v 23.30168 h 6.22203 l 0.083,-13.11492 0.12444,-13.07369 3.31842,13.07369 3.31841,13.11492 h 6.01463 l -0.083,-23.21919 -0.12444,-23.17796 -3.19397,-0.12372 -3.23546,-0.12373 -0.083,12.24885 -0.12444,12.2076 -2.9451,-12.08388 -2.94509,-12.12512 -3.19398,-0.12372 -3.15249,-0.12373 z m 44.38382,0 v 23.30168 h 7.05163 v -20.20853 h 4.97763 v 20.20853 h 7.05163 V 89.90741 h -7.05163 v 18.55886 h -4.97763 V 89.90741 h -7.05163 z m 22.39931,0 v 23.30168 h 7.05164 V 89.90741 h -7.05164 z m 10.37005,-0.0412 v 23.34292 h 7.05164 l 0.083,-9.60936 0.12444,-9.56813 3.60878,-0.20621 c 4.02358,-0.24745 5.30946,-0.86608 6.76127,-3.34059 0.74664,-1.2785 0.8296,-2.14458 0.8296,-10.47545 0,-13.15617 0.0415,-13.11492 -11.28261,-13.32113 l -7.17608,-0.16497 z m 11.07522,-15.42447 c 0.33184,0.65987 0.53924,2.7632 0.53924,5.77386 0,5.8976 -0.37332,6.76368 -2.82065,6.92864 l -1.74217,0.12373 V 96.46492 l 1.74217,0.12372 c 1.41032,0.0825 1.86661,0.32994 2.28141,1.15478 z"
     id="path4532"
     inkscape:connector-curvature="0"
     style="stroke-width:1" />
</svg>
